<mxfile host="app.diagrams.net" modified="2024-01-03T20:40:03.779Z" agent="Mozilla/5.0 (iPhone; CPU iPhone OS 17_1_2 like Mac OS X) AppleWebKit/605.1.15 (KHTML, like Gecko) Version/17.1.2 Mobile/15E148 Safari/604.1" version="22.1.16" etag="3Oho6nj9-HbgjBNQVyHm" type="github">
  <diagram name="Страница — 1" id="7tupOb3tHhv-mp-reRIq">
    <mxGraphModel>
      <root>
        <mxCell id="0" />
        <mxCell id="1" parent="0" />
      </root>
    </mxGraphModel>
  </diagram>
</mxfile>
